<svg width="24" height="24" viewBox="0 0 24 24" fill="none" xmlns="http://www.w3.org/2000/svg">
<path fill-rule="evenodd" clip-rule="evenodd" d="M12 18C15.3137 18 18 15.3137 18 12C18 9.82204 16.8286 7.85861 15 6.80261V4C15 2.89543 14.1046 2 13 2H11C9.89543 2 9 2.89543 9 4V6.80261C7.17142 7.85861 6 9.82204 6 12C6 15.3137 8.68629 18 12 18ZM20 11C19.4477 11 19 11.4477 19 12C19 12.5523 19.4477 13 20 13H21C21.5523 13 22 12.5523 22 12C22 11.4477 21.5523 11 21 11H20ZM2 12C2 11.4477 2.44772 11 3 11H4C4.55228 11 5 11.4477 5 12C5 12.5523 4.55228 13 4 13H3C2.44772 13 2 12.5523 2 12ZM12 19C11.4477 19 11 19.4477 11 20V21C11 21.5523 11.4477 22 12 22C12.5523 22 13 21.5523 13 21V20C13 19.4477 12.5523 19 12 19ZM19.0711 19.0711C18.6805 19.4616 18.0474 19.4616 17.6569 19.0711L16.9497 18.364C16.5592 17.9734 16.5592 17.3403 16.9497 16.9497C17.3403 16.5592 17.9734 16.5592 18.364 16.9497L19.0711 17.6569C19.4616 18.0474 19.4616 18.6805 19.0711 19.0711ZM7.05025 16.9497C6.65973 16.5592 6.02656 16.5592 5.63604 16.9497L4.92893 17.6569C4.53841 18.0474 4.53841 18.6805 4.92893 19.0711C5.31946 19.4616 5.95262 19.4616 6.34315 19.0711L7.05025 18.364C7.44078 17.9734 7.44078 17.3403 7.05025 16.9497Z" fill="white"/>
</svg>
