<svg width="132" height="17" viewBox="0 0 132 17" fill="none" xmlns="http://www.w3.org/2000/svg">
<path fill-rule="evenodd" clip-rule="evenodd" d="M0.00126068 6.87316C0.00169567 7.48376 0.00213065 8.09436 0.00213065 8.70496C0.00213065 9.3202 0.00159812 9.93558 0.00106552 10.551C-0.000228473 12.0463 -0.00152285 13.5421 0.00481884 15.0374C0.00947381 16.1082 0.482312 16.8312 1.39003 16.879C1.57175 16.8886 1.75367 16.8986 1.93573 16.9087C3.70352 17.0066 5.48498 17.1052 7.22862 16.7514C10.4995 16.0875 12.8606 13.2957 13.3064 9.72905C13.8648 5.2613 10.7585 1.12575 6.38375 0.64274C5.37009 0.530912 4.34161 0.551289 3.31356 0.571657C2.88571 0.580134 2.45794 0.588609 2.03134 0.587553C0.627869 0.583957 0.00803937 1.19783 0.00374247 2.5987C-0.000769353 4.02352 0.000245666 5.44834 0.00126068 6.87316ZM10.3038 9.40513C10.6494 6.48979 8.44038 3.69417 5.15653 4.03984C5.03378 4.0399 4.91094 4.04168 4.7881 4.04347C4.50904 4.04752 4.22998 4.05158 3.95214 4.03535C3.55919 4.01216 3.42688 4.16819 3.42832 4.55665C3.43899 7.36654 3.43899 10.1765 3.42832 12.9865C3.4267 13.3769 3.56691 13.5213 3.95573 13.5092C4.26551 13.4993 4.57571 13.5025 4.88586 13.5057C5.2787 13.5098 5.67147 13.5138 6.06324 13.4912C8.25595 13.3643 10.0453 11.5847 10.3038 9.40513Z" fill="#F1B21C"/>
<path fill-rule="evenodd" clip-rule="evenodd" d="M25.7041 16.6831C29.0221 15.7839 31.364 12.593 31.4358 8.74616C31.4307 8.66682 31.4253 8.57676 31.4194 8.47911C31.4051 8.24004 31.388 7.95548 31.366 7.67138C31.0061 3.03088 26.2993 -0.330257 21.814 0.848966C17.4775 1.989 15.0189 6.74238 16.3853 11.3442C17.5882 15.3951 21.7196 17.7627 25.7041 16.6831ZM23.7226 13.5086C26.1794 13.5089 28.1821 11.3813 28.1821 8.77263C28.1813 6.15641 26.1893 4.04639 23.7203 4.04765C21.2513 4.04891 19.2653 6.15767 19.2671 8.77533C19.2698 11.386 21.2658 13.5082 23.7226 13.5086Z" fill="#F1B21C"/>
<path fill-rule="evenodd" clip-rule="evenodd" d="M34.0768 8.71258C34.0768 8.09852 34.0763 7.48445 34.0757 6.87037C34.0744 5.47539 34.0732 4.08041 34.0784 2.6856C34.0841 1.17742 34.6758 0.596974 36.1837 0.595715C37.6079 0.594397 39.0325 0.594397 40.4575 0.595715C43.8644 0.599131 46.1883 3.71023 45.1985 6.98437C45.0519 7.46973 45.0923 7.71024 45.5222 8.02446C47.1824 9.23838 47.8585 11.6166 47.1863 13.6414C46.5141 15.6662 44.8239 16.9211 42.657 16.9454C40.4332 16.9704 38.2088 16.9612 35.9848 16.9474C34.7188 16.9395 34.0943 16.3195 34.0827 15.0408C34.069 13.5448 34.0718 12.0487 34.0745 10.5525C34.0757 9.9392 34.0768 9.32588 34.0768 8.71258ZM40.194 13.512C39.9635 13.5124 39.733 13.5108 39.5024 13.5092C38.9837 13.5057 38.4649 13.5021 37.947 13.5203C37.5196 13.535 37.2952 13.4444 37.327 12.9478C37.3437 12.6867 37.3218 12.4 37.3001 12.1159C37.2574 11.5586 37.2155 11.0112 37.4676 10.6869C37.7489 10.3248 38.3321 10.3936 38.917 10.4625C39.1785 10.4933 39.4404 10.5241 39.6758 10.5165C40.6133 10.4865 41.5524 10.4981 42.4908 10.5098L42.6721 10.512C43.5691 10.5232 44.21 11.1557 44.2114 12.0013C44.2112 12.3956 44.057 12.774 43.7819 13.055C43.5068 13.3361 43.1329 13.4972 42.7408 13.5038C42.1586 13.526 41.5755 13.5211 40.9923 13.5162C40.7262 13.5139 40.4601 13.5117 40.194 13.512ZM39.7541 4.04561C39.6012 4.04757 39.4482 4.04954 39.2952 4.04954C39.1469 4.04931 38.9987 4.05079 38.8504 4.05226C38.5234 4.05551 38.1964 4.05875 37.8701 4.04379C37.5061 4.02779 37.3117 4.11497 37.3285 4.53723C37.3553 5.21474 37.348 5.89423 37.3301 6.57228C37.321 6.92156 37.4345 7.06914 37.7993 7.06285C38.2398 7.05533 38.6805 7.05736 39.1212 7.0594C39.6809 7.06198 40.2406 7.06457 40.7998 7.04757C41.1791 7.03214 41.5368 6.86615 41.7946 6.586C42.0524 6.30585 42.1891 5.93439 42.1749 5.55305C42.1848 5.17179 42.0461 4.80172 41.7884 4.52188C41.5306 4.24203 41.1742 4.07458 40.7953 4.05529C40.449 4.03669 40.1017 4.04115 39.7541 4.04561Z" fill="#F1B21C"/>
<path d="M50.107 8.71806C50.107 6.67229 50.1012 4.62652 50.1087 2.58075C50.1139 1.17854 50.7402 0.558645 52.1334 0.5572C55.2577 0.555152 58.382 0.555152 61.5062 0.5572C62.6894 0.558284 63.4487 1.22732 63.4642 2.26891C63.4805 3.36252 62.7429 4.02469 61.4892 4.0265C58.9898 4.0303 56.4904 4.0415 53.9912 4.01638C53.4668 4.01114 53.2763 4.16797 53.3159 4.69897C53.3574 5.22812 53.3574 5.75975 53.3159 6.2889C53.2673 6.87121 53.4393 7.08008 54.0545 7.0658C55.8775 7.02425 57.7033 7.04773 59.528 7.05207C60.7369 7.05478 61.4226 7.69274 61.4136 8.79521C61.4058 9.88233 60.7046 10.5167 59.4949 10.5192C57.6704 10.523 55.8457 10.5338 54.0214 10.5113C53.5343 10.5051 53.2657 10.5949 53.3184 11.1651C53.3876 11.9145 53.0196 12.8746 53.4584 13.3663C53.9086 13.8707 54.8723 13.5204 55.6087 13.5301C57.6079 13.5565 59.6077 13.5348 61.6072 13.541C62.7445 13.5444 63.4649 14.2163 63.4651 15.2516C63.4651 16.2829 62.7477 16.9848 61.6143 16.9899C58.3902 17.004 55.166 17.0035 51.9417 16.9886C50.7297 16.9819 50.1186 16.329 50.1112 15.0819C50.098 12.9614 50.107 10.8397 50.107 8.71806Z" fill="#F1B21C"/>
<path fill-rule="evenodd" clip-rule="evenodd" d="M66.0882 6.94989C66.0888 7.56317 66.0894 8.17645 66.0894 8.78973L66.0939 8.78919C66.0939 9.41516 66.0924 10.0411 66.0909 10.6671C66.0872 12.2012 66.0835 13.7352 66.1019 15.269C66.1143 16.248 66.8031 16.9379 67.6737 16.9478C68.5691 16.9582 69.2757 16.2338 69.3074 15.24C69.33 14.5625 69.3353 13.883 69.3074 13.2061C69.2895 12.7746 69.4483 12.6371 69.8696 12.6488C70.7457 12.6734 71.6238 12.6783 72.4996 12.6468C72.6968 12.6331 72.8944 12.667 73.0759 12.7456C73.2574 12.8242 73.4174 12.9452 73.5427 13.0986C74.5244 14.1716 75.5268 15.2258 76.5359 16.2733C77.3231 17.0907 78.2256 17.1707 78.9137 16.5135C79.6105 15.8476 79.6487 14.7784 78.9696 14.0033C78.4575 13.4189 77.9298 12.8439 77.366 12.3107C76.9399 11.9073 76.8759 11.6857 77.3911 11.2422C79.384 9.52585 79.9742 6.79044 78.9918 4.23157C78.1193 1.9594 76.0224 0.604555 73.3749 0.604555C71.6213 0.602518 69.8677 0.602518 68.114 0.604555C66.6945 0.606173 66.0984 1.18877 66.0919 2.61121C66.0852 4.05744 66.0867 5.50366 66.0882 6.94989ZM71.288 9.20894C71.4822 9.21074 71.6765 9.21254 71.8706 9.21254L71.8704 9.20463C72.0808 9.20463 72.2913 9.20735 72.5017 9.21007C72.967 9.21608 73.4321 9.22209 73.8958 9.1987C75.2101 9.13236 76.2208 7.99125 76.2138 6.62418C76.207 5.26825 75.1623 4.09838 73.8693 4.06692C73.1239 4.04875 72.3782 4.05175 71.6324 4.05474C71.0277 4.05717 70.4231 4.05959 69.8185 4.05074C69.4185 4.04499 69.3034 4.19167 69.3083 4.57636C69.3255 5.92977 69.3335 7.28408 69.305 8.63713C69.2948 9.11996 69.4839 9.23752 69.9205 9.21955C70.3757 9.20051 70.8319 9.20473 71.288 9.20894Z" fill="#F1B21C"/>
<path d="M94.2195 6.67468C93.3327 7.62778 92.4461 8.58088 91.5599 9.53398C90.3205 10.8753 89.5615 10.8701 88.3212 9.52187C87.4449 8.56907 86.5549 7.62894 85.6449 6.65605C85.4062 6.99609 85.4931 7.2793 85.4922 7.54134C85.4843 9.94298 85.4885 12.3446 85.4863 14.7462C85.4935 14.9987 85.4834 15.2513 85.4561 15.5023C85.3345 16.3753 84.6326 17.0156 83.8353 16.9998C83.4158 16.9879 83.0168 16.8144 82.7204 16.515C82.424 16.2157 82.2527 15.8134 82.2417 15.3907C82.2058 14.8116 82.2304 14.2281 82.2304 13.6469C82.2304 9.95607 82.2293 6.26522 82.227 2.57431C82.227 2.08117 82.287 1.61318 82.5889 1.21053C83.2131 0.37807 84.2831 0.333006 85.0676 1.1508C86.5148 2.65899 87.9616 4.16936 89.351 5.73094C89.8408 6.28163 90.0937 6.22299 90.5508 5.71538C91.9159 4.1994 93.3401 2.73863 94.7237 1.23966C95.2532 0.665812 95.8531 0.372998 96.6023 0.678654C97.3364 0.977976 97.6371 1.59924 97.6374 2.37342C97.6401 6.64573 97.639 10.918 97.6344 15.1903C97.6317 16.2539 96.9252 17.0098 96.0101 17C95.1034 16.9912 94.4146 16.2284 94.4088 15.1637C94.395 12.6358 94.4038 10.1078 94.4034 7.57989V6.76553L94.2195 6.67468Z" fill="#F1B21C"/>
<path fill-rule="evenodd" clip-rule="evenodd" d="M115.247 16.2813C115.481 15.9743 115.601 15.5955 115.587 15.2095C115.565 14.8947 115.488 14.5862 115.359 14.2981C113.385 10.1265 111.413 5.9532 109.446 1.77823C109.124 1.09424 108.666 0.598473 107.852 0.618247C107.044 0.637841 106.617 1.1426 106.296 1.83306C105.448 3.65283 104.589 5.46673 103.729 7.28065C103.321 8.14119 102.913 9.00174 102.506 9.86292C102.316 10.2663 102.124 10.6691 101.932 11.0719C101.379 12.232 100.826 13.3922 100.307 14.5663C100.216 14.7675 100.167 14.9846 100.16 15.2051C100.154 15.4256 100.191 15.6451 100.27 15.8512C100.348 16.0573 100.466 16.2458 100.618 16.406C100.769 16.5662 100.951 16.6948 101.152 16.7846C101.97 17.1588 102.814 16.8272 103.272 15.9257C103.555 15.367 103.818 14.7964 104.063 14.2198C104.116 14.0533 104.224 13.9101 104.37 13.8142C104.515 13.7183 104.689 13.6755 104.863 13.6931C106.868 13.7114 108.873 13.711 110.878 13.692C111.05 13.6719 111.224 13.7126 111.37 13.8069C111.516 13.9012 111.624 14.0434 111.677 14.2091C111.933 14.8076 112.217 15.3965 112.516 15.976C112.897 16.7173 113.611 17.0698 114.305 16.8928C114.68 16.8045 115.013 16.5884 115.247 16.2813ZM108.38 7.24872C108.216 6.90521 108.048 6.5522 107.874 6.18609C107.692 6.57404 107.518 6.9482 107.348 7.31238C106.928 8.21259 106.537 9.05178 106.138 9.88752C105.945 10.2916 106.184 10.2915 106.454 10.2913C106.46 10.2913 106.466 10.2913 106.472 10.2913C106.692 10.291 106.913 10.2903 107.134 10.2897C107.841 10.2876 108.548 10.2855 109.256 10.2949C109.627 10.2997 109.786 10.1963 109.604 9.81579C109.206 8.98204 108.808 8.14792 108.38 7.24872Z" fill="#F1B21C"/>
<path d="M128.305 10.4127C128.305 7.64526 128.309 5.09251 128.301 2.53994C128.299 2.04445 128.369 1.58662 128.688 1.18943C128.85 0.962288 129.072 0.784992 129.327 0.677137C129.583 0.569281 129.863 0.535069 130.136 0.578267C130.424 0.614392 130.695 0.731316 130.921 0.915782C131.146 1.10025 131.315 1.34488 131.41 1.62193C131.523 1.95767 131.571 2.31258 131.551 2.66685C131.549 6.7384 131.548 10.8099 131.549 14.8813C131.553 15.0582 131.547 15.2352 131.531 15.4114C131.443 16.1506 131.102 16.6967 130.364 16.9225C129.615 17.1513 129.049 16.8566 128.593 16.2708C126.782 13.9492 124.972 11.6271 123.163 9.30461C122.641 8.63479 122.113 7.97058 121.577 7.29062C121.314 7.54678 121.425 7.81326 121.424 8.04589C121.413 10.4482 121.426 12.8507 121.411 15.253C121.406 16.1582 120.894 16.7997 120.114 16.9699C119.754 17.0339 119.383 16.9733 119.062 16.7981C118.74 16.6228 118.486 16.343 118.341 16.0037C118.229 15.7214 118.18 15.4174 118.198 15.1136C118.196 10.8902 118.197 6.66696 118.2 2.44381C118.201 1.53865 118.627 0.881312 119.308 0.646331C119.996 0.40954 120.612 0.632029 121.189 1.3672C123.409 4.1982 125.625 7.03228 127.837 9.86944C127.942 10.0021 128.057 10.1252 128.305 10.4127Z" fill="#F1B21C"/>
</svg>
